# Star generated
v 1.0000 0.1000 0.0000
v 0.3641 0.1000 0.2645
v 0.3090 0.1000 0.9511
v -0.1391 0.1000 0.4280
v -0.8090 0.1000 0.5878
v -0.4500 0.1000 0.0000
v -0.8090 0.1000 -0.5878
v -0.1391 0.1000 -0.4280
v 0.3090 0.1000 -0.9511
v 0.3641 0.1000 -0.2645
v 1.0000 -0.1000 0.0000
v 0.3641 -0.1000 0.2645
v 0.3090 -0.1000 0.9511
v -0.1391 -0.1000 0.4280
v -0.8090 -0.1000 0.5878
v -0.4500 -0.1000 0.0000
v -0.8090 -0.1000 -0.5878
v -0.1391 -0.1000 -0.4280
v 0.3090 -0.1000 -0.9511
v 0.3641 -0.1000 -0.2645
v 0.0000 0.1000 0.0000
v 0.0000 -0.1000 0.0000
f 21 1 2
f 21 2 3
f 21 3 4
f 21 4 5
f 21 5 6
f 21 6 7
f 21 7 8
f 21 8 9
f 21 9 10
f 21 10 1
f 22 12 11
f 22 13 12
f 22 14 13
f 22 15 14
f 22 16 15
f 22 17 16
f 22 18 17
f 22 19 18
f 22 20 19
f 22 11 20
f 1 2 12
f 1 12 11
f 2 3 13
f 2 13 12
f 3 4 14
f 3 14 13
f 4 5 15
f 4 15 14
f 5 6 16
f 5 16 15
f 6 7 17
f 6 17 16
f 7 8 18
f 7 18 17
f 8 9 19
f 8 19 18
f 9 10 20
f 9 20 19
f 10 1 11
f 10 11 20